<?xml version="1.0" encoding="utf-8"?>
<svg viewBox="852.906 4180.614 31 31" xmlns="http://www.w3.org/2000/svg">
  <path d="M 879.118 4182.479 L 857.693 4182.479 C 856.079 4182.479 854.771 4183.787 854.771 4185.4 L 854.771 4206.826 C 854.771 4208.44 856.079 4209.748 857.693 4209.748 L 866.047 4209.748 L 866.047 4200.477 L 862.211 4200.477 L 862.211 4196.114 L 866.047 4196.114 L 866.047 4192.788 C 866.047 4189.005 868.299 4186.915 871.749 4186.915 C 873.401 4186.915 875.128 4187.21 875.128 4187.21 L 875.128 4190.922 L 873.225 4190.922 C 871.349 4190.922 870.764 4192.087 870.764 4193.279 L 870.764 4196.114 L 874.951 4196.114 L 874.281 4200.477 L 870.764 4200.477 L 870.764 4209.748 L 879.118 4209.748 C 880.732 4209.749 882.041 4208.44 882.04 4206.826 L 882.04 4185.4 C 882.04 4183.787 880.732 4182.479 879.118 4182.479 L 879.118 4182.479 Z" fill="#fffcfc" fill-rule="evenodd" data-name="Icon awesome-facebook-square" style=""/>
</svg>